<svg width="17" height="17" viewBox="0 0 17 17" fill="none" xmlns="http://www.w3.org/2000/svg">
<path fill-rule="evenodd" clip-rule="evenodd" d="M8.5 0.25C8.69891 0.25 8.88968 0.329018 9.03033 0.46967C9.17098 0.610322 9.25 0.801088 9.25 1V7.75H16C16.1989 7.75 16.3897 7.82902 16.5303 7.96967C16.671 8.11032 16.75 8.30109 16.75 8.5C16.75 8.69891 16.671 8.88968 16.5303 9.03033C16.3897 9.17098 16.1989 9.25 16 9.25H9.25V16C9.25 16.1989 9.17098 16.3897 9.03033 16.5303C8.88968 16.671 8.69891 16.75 8.5 16.75C8.30109 16.75 8.11032 16.671 7.96967 16.5303C7.82902 16.3897 7.75 16.1989 7.75 16V9.25H1C0.801088 9.25 0.610322 9.17098 0.46967 9.03033C0.329018 8.88968 0.25 8.69891 0.25 8.5C0.25 8.30109 0.329018 8.11032 0.46967 7.96967C0.610322 7.82902 0.801088 7.75 1 7.75H7.75V1C7.75 0.801088 7.82902 0.610322 7.96967 0.46967C8.11032 0.329018 8.30109 0.25 8.5 0.25Z" fill="white"/>
</svg>
