<svg width="212" height="215" viewBox="0 0 212 215" fill="none" xmlns="http://www.w3.org/2000/svg">
<path d="M68.2912 208.985C83.1479 217.94 93.7466 214.222 97.8042 207.042C105.651 193.155 131.741 164.758 173.087 155.16C227.847 142.448 216.412 108.696 182.748 90.9842C149.085 73.2725 123.914 48.7651 127.724 22.1176C131.533 -4.52983 93.7879 -13.7161 77.0019 37.5447C66.1544 70.6713 46.715 79.5461 34.3188 81.6794C22.6357 83.6899 9.85581 86.2126 3.62371 96.2971C-3.93853 108.533 -1.29967 120.91 30.3617 129.4C75.2291 141.43 34.991 188.913 68.2912 208.985Z" fill="#BDA2F4"/>
<path d="M29.6905 150.924C30.3193 150.564 37.4156 147.56 72.7186 164.018C72.6157 164.158 72.572 164.224 72.572 164.224C72.572 164.224 35.8711 176.584 28.6803 161.357C26.533 156.824 27.1483 153.703 29.6292 150.959L29.6905 150.924Z" fill="#0E84E5"/>
<path d="M148.346 157.152C140.677 163.6 128.648 168.28 117.042 162.056C118.876 160.885 120.771 159.677 122.703 158.429C134.358 150.94 144.625 155.951 148.346 157.152Z" fill="#0E84E5"/>
<path d="M162.085 77.8485C169.921 143.1 151.299 154.943 149.226 156.742C148.625 157.263 148.382 157.225 147.475 156.991L147.459 157C143.618 155.982 134.359 150.94 122.703 158.428C120.771 159.676 118.876 160.884 117.042 162.055C105.152 169.596 95.5505 174.911 88.6329 171.826C82.7654 168.833 77.4749 166.243 72.7187 164.018C37.4157 147.559 30.3194 150.564 29.6907 150.924C30.4202 150.526 37.1126 146.817 46.1239 140.293C46.1545 140.275 46.1852 140.258 46.1918 140.234C58.2365 131.505 74.3669 117.749 85.9614 100.054C93.8545 88.0211 101.576 57.5168 116.475 51.5315C147.094 40.1089 160.814 64.576 162.085 77.8485Z" fill="#AC6AFF"/>
<path d="M128.228 76.704C129.179 74.1942 129.086 71.8328 128.021 71.4295C126.957 71.0263 125.323 72.734 124.373 75.2438C123.422 77.7535 123.515 80.115 124.579 80.5182C125.644 80.9214 127.278 79.2137 128.228 76.704Z" fill="white"/>
<path d="M147.724 79.9058C148.398 77.308 148.051 74.9704 146.949 74.6846C145.846 74.3988 144.407 76.2731 143.733 78.8709C143.06 81.4688 143.407 83.8064 144.509 84.0921C145.611 84.3779 147.051 82.5036 147.724 79.9058Z" fill="white"/>
<path d="M135.857 89.4445C135.697 89.4443 135.542 89.3895 135.418 89.2893C135.294 89.189 135.208 89.0492 135.174 88.8931C135.049 88.3281 134.494 86.6562 133.613 86.4077C132.733 86.1592 131.006 87.124 130.307 87.6301C130.157 87.739 129.97 87.7837 129.786 87.7544C129.603 87.725 129.439 87.6241 129.33 87.4737C129.221 87.3233 129.176 87.1358 129.206 86.9525C129.235 86.7692 129.336 86.605 129.486 86.4961C129.762 86.2967 132.228 84.562 133.993 85.0602C135.835 85.5799 136.475 88.2882 136.541 88.5954C136.564 88.6976 136.563 88.8036 136.539 88.9054C136.515 89.0073 136.468 89.1024 136.402 89.1839C136.337 89.2654 136.254 89.331 136.159 89.3761C136.065 89.4212 135.961 89.4446 135.857 89.4445H135.857Z" fill="white"/>
</svg>
