<svg width="33" height="33" viewBox="0 0 33 33" fill="none" xmlns="http://www.w3.org/2000/svg">
<g clip-path="url(#clip0_237_6576)">
<path d="M16.1244 32.4981C24.9113 32.4981 32.0345 25.3749 32.0345 16.5879C32.0345 7.80097 24.9113 0.677734 16.1244 0.677734C7.33743 0.677734 0.214203 7.80097 0.214203 16.5879C0.214203 25.3749 7.33743 32.4981 16.1244 32.4981Z" fill="#AC6AFF"/>
<path d="M24.2728 11.0187L25.3664 11.7469L25.731 11.1995L25.5112 10.5796L24.2728 11.0187ZM25.8513 15.4706L27.0898 15.0316L26.8702 14.4121L26.2426 14.2164L25.8513 15.4706ZM7.93388 22.0385L6.85877 21.2832L6.46886 21.8383L6.69555 22.4776L7.93388 22.0385ZM6.3262 17.5045L5.08789 17.9436L5.3145 18.5827L5.96674 18.7682L6.3262 17.5045ZM6.24344 12.0367C4.64895 12.6021 3.81471 14.353 4.38008 15.9474L6.85674 15.0693C6.77637 14.8426 6.89495 14.5937 7.12162 14.5134L6.24344 12.0367ZM20.9312 6.82869L6.24344 12.0367L7.12162 14.5134L21.8093 9.30535L20.9312 6.82869ZM24.8418 8.69204C24.2766 7.09758 22.5256 6.26331 20.9312 6.82869L21.8093 9.30535C22.036 9.22497 22.2849 9.34356 22.3652 9.57022L24.8418 8.69204ZM25.5112 10.5796L24.8418 8.69204L22.3652 9.57022L23.0345 11.4578L25.5112 10.5796ZM25.0936 12.6525C25.0936 12.3154 25.194 12.0057 25.3664 11.7469L23.1793 10.2905C22.7286 10.9673 22.466 11.7812 22.466 12.6525H25.0936ZM26.2426 14.2164C25.5755 14.0083 25.0936 13.385 25.0936 12.6525H22.466C22.466 14.5673 23.7267 16.1842 25.4603 16.7249L26.2426 14.2164ZM27.869 17.2289L27.0898 15.0316L24.6131 15.9097L25.3924 18.1071L27.869 17.2289ZM26.0055 21.1397C27.6001 20.5743 28.4342 18.8234 27.869 17.2289L25.3924 18.1071C25.4727 18.3338 25.354 18.5826 25.1275 18.663L26.0055 21.1397ZM11.3178 26.3478L26.0055 21.1397L25.1275 18.663L10.4397 23.871L11.3178 26.3478ZM7.40712 24.4843C7.97249 26.0787 9.72338 26.913 11.3178 26.3478L10.4397 23.871C10.213 23.9514 9.96413 23.8328 9.88378 23.6061L7.40712 24.4843ZM6.69555 22.4776L7.40712 24.4843L9.88378 23.6061L9.17219 21.5994L6.69555 22.4776ZM7.15471 20.3438C7.15471 20.6954 7.04538 21.0176 6.85877 21.2832L9.00896 22.7937C9.49623 22.1001 9.78245 21.2534 9.78245 20.3438H7.15471ZM5.96674 18.7682C6.65365 18.9636 7.15471 19.5969 7.15471 20.3438H9.78245C9.78245 18.3916 8.47216 16.7489 6.68567 16.2408L5.96674 18.7682ZM4.38008 15.9474L5.08789 17.9436L7.56453 17.0654L6.85674 15.0693L4.38008 15.9474Z" fill="white"/>
<path d="M12.6672 15.6399L16.691 17.7136L18.3936 13.6774" stroke="white" stroke-width="3" stroke-linecap="round"/>
</g>
<defs>
<clipPath id="clip0_237_6576">
<rect width="32.2336" height="32" fill="white" transform="translate(0 0.677734)"/>
</clipPath>
</defs>
</svg>
